<?xml version="1.0" standalone="no"?>
<!DOCTYPE svg PUBLIC "-//W3C//DTD SVG 20010904//EN"
 "http://www.w3.org/TR/2001/REC-SVG-20010904/DTD/svg10.dtd">
<svg version="1.0" xmlns="http://www.w3.org/2000/svg"
 width="225.000000pt" height="225.000000pt" viewBox="0 0 225.000000 225.000000"
 preserveAspectRatio="xMidYMid meet">
<metadata>
Created by potrace 1.14, written by Peter Selinger 2001-2017
</metadata>
<g transform="translate(0.000000,225.000000) scale(0.100000,-0.100000)"
fill="#000000" stroke="none">
<path d="M1213 1586 c-7 -10 -259 -751 -294 -864 -11 -35 -18 -66 -15 -69 9
-10 138 -8 151 2 13 10 318 915 311 922 -10 10 -148 18 -153 9z"/>
<path d="M770 1357 c-69 -31 -159 -70 -295 -127 -82 -35 -152 -67 -155 -71 -3
-4 -7 -38 -8 -76 l-3 -68 248 -102 c137 -57 254 -103 261 -103 8 0 12 24 12
80 0 93 21 76 -182 147 -76 26 -134 50 -130 54 4 3 76 30 160 60 l152 54 -2
80 c-3 86 -10 95 -58 72z"/>
<path d="M1432 1288 l3 -83 158 -55 c86 -30 157 -57 157 -60 0 -3 -71 -30
-158 -61 l-157 -56 -3 -82 c-2 -61 0 -81 10 -81 7 0 124 46 261 102 l247 102
0 74 0 73 -47 20 c-123 54 -456 189 -465 189 -5 0 -8 -37 -6 -82z"/>
</g>
</svg>
